<svg xmlns="http://www.w3.org/2000/svg" viewBox="0 0 563.62 148"><defs><style>.a{fill:#fff;}.b{fill:#e00;}</style></defs><title>Logo-Red_Hat-Powered_By-C-Reverse-RGB</title><path class="a" d="M228.23,85.65h24.49c9.26,0,16.9,7,16.9,16.27a15.43,15.43,0,0,1-9.12,14l10.67,18.88H257.7l-9.19-17.19H240.3v17.19H228.23ZM240.3,96v11.65h11a5.9,5.9,0,0,0,6.11-5.69,6,6,0,0,0-6.11-6Z"/><path class="a" d="M290.32,135.46c-11.36,0-20.2-8.42-20.2-19.22A19.06,19.06,0,0,1,289.48,97c10.8,0,18.73,8.49,18.73,20v3.08H281.76a9.6,9.6,0,0,0,9.12,5.9,10,10,0,0,0,7.44-2.81l7.51,6.67A22.31,22.31,0,0,1,290.32,135.46Zm-8.63-23.29h15.44a8.31,8.31,0,0,0-7.79-5.83A7.72,7.72,0,0,0,281.69,112.17Z"/><path class="a" d="M340.35,132a16.8,16.8,0,0,1-10,3.3,19.12,19.12,0,1,1,9.83-35.71v-14l11.36-3.51v52.62H340.35Zm-8.14-6.38a11.29,11.29,0,0,0,8-3v-13a12,12,0,0,0-8-2.88,9.41,9.41,0,1,0,0,18.81Z"/><path class="a" d="M398.23,115.53h-18.8v19.23H367.36V85.65h12.07v18.87h18.8V85.65H410.3v49.11H398.23Z"/><path class="a" d="M436.75,132.51a16.48,16.48,0,0,1-10,2.88c-8.28,0-13.83-5.19-13.83-11.86s5.27-11.43,14.46-11.43a20,20,0,0,1,9.33,2.1V112c0-3.58-2.39-5.41-7-5.41a28.76,28.76,0,0,0-11.15,2.67l-3.37-8.49c5.61-2.45,10.73-3.79,15.29-3.79,11.37,0,17.61,5,17.61,14v23.79H436.75Zm-6.95-5a13.11,13.11,0,0,0,6.95-1.89v-3.86a14.71,14.71,0,0,0-7.3-2c-3.51,0-5.68,1.48-5.68,3.79S426.08,127.46,429.8,127.46Z"/><path class="a" d="M470.22,135.32c-7.79,0-12.14-3.72-12.14-11.44V107.12h-7.86V97.64h7.86V89.15l11.36-3.5v12h10.39v9.48H469.44v14.17c0,3.15,1.69,4.35,5.13,4.35a12.19,12.19,0,0,0,5-1.13L478,133.7A19.61,19.61,0,0,1,470.22,135.32Z"/><path class="a" d="M228,14.12h20.42c8.7,0,14.44,5.42,14.44,13.23,0,7.63-5.74,13.11-14.44,13.11h-13.8V58.24H228Zm6.62,5.8V34.85h13.11c5.36,0,8.45-3.08,8.45-7.5s-3.09-7.43-8.45-7.43Z"/><path class="a" d="M282.05,25.53a16.67,16.67,0,1,1-16.71,16.64A16.46,16.46,0,0,1,282.05,25.53Zm0,5.54c-5.86,0-10.53,4.86-10.53,11.1s4.6,11.15,10.53,11.15,10.52-4.91,10.52-11.15S287.91,31.07,282.05,31.07Z"/><path class="a" d="M310,58.24l-9-32.08h6.11l6.18,23.57,7.37-23.57h5.42l7.32,23.57,6.24-23.57h5.92l-9,32.08h-6.05L323.4,34.73l-7.25,23.51Z"/><path class="a" d="M364.12,25.65c8.83,0,15.51,7.31,15.51,16.77v1.83H354.29a10.83,10.83,0,0,0,10.84,9.2,12.44,12.44,0,0,0,8.13-2.84l4,4a18.88,18.88,0,0,1-12.42,4.23,16.51,16.51,0,0,1-16.83-16.64C348.05,33,355.05,25.65,364.12,25.65Zm-9.77,13.87h19C372.51,34.6,368.66,31,364,31,359.08,31,355.3,34.48,354.35,39.52Z"/><path class="a" d="M385.56,26.16h6.3v4a10.27,10.27,0,0,1,8.76-4.67,9.05,9.05,0,0,1,3.28.51v5.67a11.22,11.22,0,0,0-3.78-.69c-3.34,0-6.49,1.64-8.26,5.8V58.24h-6.3Z"/><path class="a" d="M421.74,25.65c8.82,0,15.51,7.31,15.51,16.77v1.83H411.91a10.82,10.82,0,0,0,10.84,9.2,12.46,12.46,0,0,0,8.13-2.84l4,4a18.85,18.85,0,0,1-12.41,4.23,16.51,16.51,0,0,1-16.83-16.64C405.67,33,412.66,25.65,421.74,25.65ZM412,39.52h19c-.89-4.92-4.73-8.57-9.4-8.57C416.7,31,412.92,34.48,412,39.52Z"/><path class="a" d="M468,55.21a15.16,15.16,0,0,1-9.84,3.53,16.24,16.24,0,0,1-16.2-16.57,16.33,16.33,0,0,1,26-13.37V14.12l6.31-1.39V58.24H468Zm-8.95-2a11.5,11.5,0,0,0,8.88-3.84V34.85A12,12,0,0,0,459,31.07a10.75,10.75,0,0,0-10.91,11A10.85,10.85,0,0,0,459,53.26Z"/><path class="a" d="M510.56,58.74a15.7,15.7,0,0,1-9.64-3.21v2.71h-6.25V14.12L501,12.73V29.12a14.93,14.93,0,0,1,9.77-3.47A16.19,16.19,0,0,1,527,42.17,16.24,16.24,0,0,1,510.56,58.74ZM501,34.92V49.54a11.93,11.93,0,0,0,8.89,3.72,10.74,10.74,0,0,0,10.9-11,10.79,10.79,0,0,0-10.9-11.09A11.43,11.43,0,0,0,501,34.92Z"/><path class="a" d="M540.94,58.3,528.15,26.16h6.93l9.39,24.52,10.34-24.52h6.81L546.3,61.71c-2.9,6.62-6.17,9.58-12.29,9.58a13.3,13.3,0,0,1-3.34-.32V65.43a10.66,10.66,0,0,0,2.77.25c2.71,0,4.86-1.26,6.37-4.73Z"/><path class="b" d="M129,85c12.5,0,30.61-2.58,30.61-17.46a14,14,0,0,0-.31-3.42l-7.45-32.36c-1.72-7.12-3.23-10.35-15.74-16.6C126.38,10.19,105.26,2,99,2c-5.82,0-7.55,7.54-14.45,7.54-6.68,0-11.64-5.6-17.89-5.6-6,0-9.91,4.1-12.93,12.5,0,0-8.41,23.72-9.49,27.16A6.43,6.43,0,0,0,44,45.54C44,54.76,80.32,85,129,85Zm32.55-11.42c1.73,8.19,1.73,9.05,1.73,10.13,0,14-15.74,21.77-36.43,21.77C80,105.47,39.08,78.1,39.08,60a18.49,18.49,0,0,1,1.51-7.33C23.77,53.52,2,56.54,2,75.72,2,107.2,76.59,146,135.65,146c45.27,0,56.7-20.48,56.7-36.65C192.35,96.63,181.35,82.19,161.52,73.57Z"/><path d="M161.52,73.57c1.73,8.19,1.73,9.05,1.73,10.13,0,14-15.74,21.77-36.43,21.77C80,105.47,39.08,78.1,39.08,60a18.49,18.49,0,0,1,1.51-7.33l3.66-9.06A6.43,6.43,0,0,0,44,45.54C44,54.76,80.32,85,129,85c12.5,0,30.61-2.58,30.61-17.46a14,14,0,0,0-.31-3.42Z"/></svg>